# xmcd CD database file
#
# Track frame offsets:
#	150
#	12420
#	23748
#	41240
#	52820
#	75715
#	87995
#	102720
#	128125
#	141118
#	151320
#	175598
#	186473
#	206030
#	225590
#	238725
#	249825
#	277283
#	294778
#
# Disc length: 4352 seconds
#
# Revision: 0
# Processed by: cddbd v1.4PL0 Copyright (c) Steve Scherf et al.
# Submitted via: CdAid 2001.05.15.01
#
DISCID=0810fe13
DTITLE=James Cotton - Best of the Verve Years
DYEAR=1900
DGENRE=
TTITLE0=Good Time Charlie
TTITLE1=Turn On Your Lofvelight
TTITLE2=Something On Your Mind
TTITLE3=Don't Start Me Talkin'
TTITLE4=Jelly, Jelly
TTITLE5=Off The Wall
TTITLE6=Feelin' Good
TTITLE7=Sweet Sixteen
TTITLE8=Knock On Wood
TTITLE9=Oh, Why?
TTITLE10=Blues In My Sleep
TTITLE11=Soul Survivor
TTITLE12=Fallin' Rain
TTITLE13=Heart Attack
TTITLE14=Lovin' Cup
TTITLE15=She's Murder (aka Murder in the First Degree)
TTITLE16=The Creeper
TTITLE17=Down At Your Buryin'
TTITLE18=Back to St. Louis
EXTD=
EXTT0=
EXTT1=
EXTT2=
EXTT3=
EXTT4=
EXTT5=
EXTT6=
EXTT7=
EXTT8=
EXTT9=
EXTT10=
EXTT11=
EXTT12=
EXTT13=
EXTT14=
EXTT15=
EXTT16=
EXTT17=
EXTT18=
PLAYORDER=
